<?xml version="1.0" encoding="UTF-8" standalone="no"?>
<!-- Created with Inkscape (http://www.inkscape.org/) -->

<svg
   xmlns:dc="http://purl.org/dc/elements/1.1/"
   xmlns:cc="http://creativecommons.org/ns#"
   xmlns:rdf="http://www.w3.org/1999/02/22-rdf-syntax-ns#"
   xmlns:svg="http://www.w3.org/2000/svg"
   xmlns="http://www.w3.org/2000/svg"
   xmlns:sodipodi="http://sodipodi.sourceforge.net/DTD/sodipodi-0.dtd"
   xmlns:inkscape="http://www.inkscape.org/namespaces/inkscape"
   width="187.2059mm"
   height="34.595188mm"
   viewBox="0 0 187.2059 34.595188"
   version="1.1"
   id="svg8"
   inkscape:version="0.92.3 (2405546, 2018-03-11)"
   sodipodi:docname="logo.svg">
  <defs
     id="defs2">
    <clipPath
       id="clipPath3729"
       clipPathUnits="userSpaceOnUse">
      <path
         inkscape:connector-curvature="0"
         id="path3727"
         d="M 0,298.491 H 595.131 V 0 H 0 Z" />
    </clipPath>
  </defs>
  <sodipodi:namedview
     id="base"
     pagecolor="#ffffff"
     bordercolor="#666666"
     borderopacity="1.0"
     inkscape:pageopacity="0.0"
     inkscape:pageshadow="2"
     inkscape:zoom="0.35"
     inkscape:cx="-159.08221"
     inkscape:cy="19.66244"
     inkscape:document-units="mm"
     inkscape:current-layer="layer1"
     showgrid="false"
     inkscape:window-width="2560"
     inkscape:window-height="1017"
     inkscape:window-x="1358"
     inkscape:window-y="-8"
     inkscape:window-maximized="1" />
  <metadata
     id="metadata5">
    <rdf:RDF>
      <cc:Work
         rdf:about="">
        <dc:format>image/svg+xml</dc:format>
        <dc:type
           rdf:resource="http://purl.org/dc/dcmitype/StillImage" />
        <dc:title></dc:title>
      </cc:Work>
    </rdf:RDF>
  </metadata>
  <g
     inkscape:label="Camada 1"
     inkscape:groupmode="layer"
     id="layer1"
     transform="translate(-8.4506209,-119.4405)">
    <g
       transform="matrix(0.35277777,0,0,-0.35277777,-3.3101433,191.68339)"
       inkscape:label="grupo"
       id="g3721">
      <g
         id="g3723">
        <g
           clip-path="url(#clipPath3729)"
           id="g3725">
          <g
             transform="translate(187.0303,135.7656)"
             id="g3731">
            <path
               inkscape:connector-curvature="0"
               id="path3733"
               style="fill:#a01217;fill-opacity:1;fill-rule:evenodd;stroke:none"
               d="m 0,0 h 3.799 c 5.605,0 10.748,1.945 10.748,8.292 0,5.096 -3.521,6.162 -7.32,6.162 H 3.011 Z M -8.849,24.507 H 5.328 c 11.628,0 23.349,-1.204 23.349,-14.64 0,-13.25 -10.795,-19.921 -23.581,-19.921 h -7.227 l -3.984,-18.577 h -14.177 z" />
          </g>
          <g
             transform="translate(221.4517,160.2725)"
             id="g3735">
            <path
               inkscape:connector-curvature="0"
               id="path3737"
               style="fill:#a01217;fill-opacity:1;fill-rule:evenodd;stroke:none"
               d="M 0,0 H 37.387 L 35.302,-10.053 H 11.953 L 9.498,-21.032 h 22.19 L 29.465,-31.086 H 7.366 L 4.772,-43.085 h 24.322 l -2.085,-10.053 h -38.452 z" />
          </g>
          <g
             transform="translate(272.9219,138.1738)"
             id="g3739">
            <path
               inkscape:connector-curvature="0"
               id="path3741"
               style="fill:#a01217;fill-opacity:1;fill-rule:evenodd;stroke:none"
               d="m 0,0 h 4.818 c 6.162,0 10.933,1.529 10.933,6.579 0,3.799 -2.27,5.374 -6.532,5.467 H 2.456 Z M -9.358,22.099 H 7.598 c 10.146,-0.093 22.33,-0.371 22.33,-13.575 0,-9.357 -7.32,-12.6 -15.473,-13.62 v -0.138 c 4.215,-0.371 5.559,-6.023 6.346,-9.452 L 24.6,-31.039 H 10.424 L 7.69,-17.512 c -1.389,6.949 -1.806,7.459 -8.246,7.459 H -2.038 L -6.3,-31.039 h -14.269 z" />
          </g>
          <g
             transform="translate(181.7026,179.0356)"
             id="g3743">
            <path
               inkscape:connector-curvature="0"
               id="path3745"
               style="fill:#a01217;fill-opacity:1;fill-rule:evenodd;stroke:none"
               d="m 0,0 2.918,13.852 h -111.047 c 0,0 -15.103,0.788 -22.794,-6.208 -8.709,-7.876 -9.451,-14.964 -9.451,-14.964 l -7.134,-35.116 c 0,0 -3.428,-11.536 3.428,-19.505 6.81,-7.968 14.13,-9.126 16.076,-9.266 0.741,-0.091 3.475,0 3.475,0 h 25.341 c 0,0 -8.941,5.19 -9.775,13.297 h -13.482 c 0,0 -6.207,-0.232 -9.126,2.78 -3.104,3.243 -3.429,4.864 -2.595,10.748 0.788,5.837 6.347,31.549 6.347,31.549 0,0 1.622,6.486 4.541,9.266 2.455,2.362 6.022,3.752 10.238,3.567 C -108.778,-0.139 0,0 0,0" />
          </g>
          <g
             transform="translate(350.0117,148.042)"
             id="g3747">
            <path
               inkscape:connector-curvature="0"
               id="path3749"
               style="fill:#a01217;fill-opacity:1;fill-rule:evenodd;stroke:none"
               d="m 0,0 c -4.494,2.548 -8.756,3.197 -13.25,3.197 -14.269,0 -19.967,-10.053 -19.967,-20.106 0,-9.451 6.023,-13.899 14.547,-13.899 5.096,0 9.729,1.066 13.482,2.965 l -1.53,-11.396 c -3.428,-1.158 -9.358,-2.085 -14.176,-2.085 -17.141,0 -26.962,10.145 -26.962,24.785 0,17.651 12.416,30.206 32.382,30.206 10.193,0 15.891,-1.714 18.81,-2.78 z" />
          </g>
          <g
             transform="translate(382.5801,149.8027)"
             id="g3751">
            <path
               inkscape:connector-curvature="0"
               id="path3753"
               style="fill:#a01217;fill-opacity:1;fill-rule:evenodd;stroke:none"
               d="M 0,0 H -0.139 L -11.443,-20.802 H 2.271 Z m -7.088,10.979 h 17.836 l 8.663,-53.137 H 5.096 L 3.66,-30.854 h -20.662 l -6.301,-11.304 h -15.381 z" />
          </g>
          <g
             transform="translate(423.0244,138.6836)"
             id="g3755">
            <path
               inkscape:connector-curvature="0"
               id="path3757"
               style="fill:#a01217;fill-opacity:1;fill-rule:evenodd;stroke:none"
               d="m 0,0 h 4.818 c 6.161,0 10.933,1.529 10.933,6.579 0,3.799 -2.27,5.374 -6.532,5.466 H 2.455 Z M -9.358,22.099 H 7.598 c 10.145,-0.093 22.33,-0.371 22.33,-13.575 0,-9.358 -7.32,-12.647 -15.474,-13.62 v -0.138 c 4.216,-0.371 5.56,-6.024 6.347,-9.452 L 24.6,-31.039 H 10.424 L 7.69,-17.512 c -1.389,6.949 -1.806,7.459 -8.2,7.459 h -1.528 l -4.263,-20.986 h -14.268 z" />
          </g>
          <g
             transform="translate(502.8936,148.2739)"
             id="g3759">
            <path
               inkscape:connector-curvature="0"
               id="path3761"
               style="fill:#a01217;fill-opacity:1;fill-rule:evenodd;stroke:none"
               d="m 0,0 c -4.679,2.084 -9.22,2.918 -15.381,2.918 -14.268,0 -19.968,-10.052 -19.968,-20.106 0,-9.451 6.024,-13.852 13.25,-13.852 1.807,0 3.661,0.278 5.653,0.88 l 2.362,10.517 h -8.478 l 2.085,10.053 H 1.807 l -6.301,-29.604 c -5.327,-1.621 -13.944,-2.362 -18.531,-2.362 -17.141,0 -26.962,10.099 -26.962,24.739 0,17.65 10.608,30.252 35.255,30.252 6.486,0 11.999,-1.066 17.79,-2.595 z" />
          </g>
          <g
             transform="translate(537.084,149.8027)"
             id="g3763">
            <path
               inkscape:connector-curvature="0"
               id="path3765"
               style="fill:#a01217;fill-opacity:1;fill-rule:evenodd;stroke:none"
               d="M 0,0 H -0.14 L -11.443,-20.802 H 2.27 Z m -7.089,10.979 h 17.837 l 8.663,-53.137 H 5.096 l -1.437,11.304 h -20.662 l -6.301,-11.304 h -15.381 z" />
          </g>
          <g
             transform="translate(149.5049,161.7554)"
             id="g3767">
            <path
               inkscape:connector-curvature="0"
               id="path3769"
               style="fill:#1c4b75;fill-opacity:1;fill-rule:evenodd;stroke:none"
               d="m 0,0 c -15.289,0 -30.53,-12.323 -34.051,-27.472 -0.185,-0.695 -0.324,-1.205 -0.51,-1.946 -2.27,-6.44 -9.821,-11.49 -15.427,-11.444 -7.459,0 -12.647,5.143 -10.933,13.343 1.482,7.088 8.524,13.296 15.983,13.343 7.227,0.093 10.655,-4.309 11.304,-8.942 0.046,0.232 0.185,0.834 0.278,1.066 1.76,4.771 6.023,10.192 10.099,13.852 -3.845,5.003 -10.192,8.2 -17.882,8.2 -15.289,0 -30.53,-12.277 -34.051,-27.472 -3.521,-15.15 5.976,-27.473 21.264,-27.473 13.111,0 26.314,8.942 32.013,21.125 0.602,1.158 0.973,2.409 1.343,3.475 0.139,0.51 0.741,3.012 0.741,3.012 1.668,6.856 8.618,13.11 15.984,13.203 8.339,0.092 12.601,-6.254 11.026,-13.435 -1.529,-7.273 -9.266,-13.111 -15.891,-13.297 -5.93,-0.184 -10.609,3.29 -11.257,8.988 -0.047,-0.185 0,-0.185 -0.047,-0.371 -1.807,-4.864 -6.486,-10.886 -10.516,-14.592 3.845,-5.004 10.099,-8.108 17.743,-8.108 15.288,0 30.53,12.277 34.051,27.473 C 24.785,-12.323 15.288,0 0,0" />
          </g>
          <g
             transform="translate(556.4951,156.2422)"
             id="g3771">
            <path
               inkscape:connector-curvature="0"
               id="path3773"
               style="fill:#a01217;fill-opacity:1;fill-rule:evenodd;stroke:none"
               d="m 0,0 h 1.204 c 0.881,0 1.761,0.185 1.761,1.251 0,1.019 -0.88,1.205 -1.761,1.205 H 0 Z m -1.39,3.335 h 2.918 c 2.085,0 2.641,-1.158 2.641,-2.084 0,-0.973 -0.787,-1.899 -2.038,-2.039 L 4.309,-4.216 H 2.918 L 0.973,-0.88 H 0 v -3.336 h -1.39 z" />
          </g>
          <g
             transform="translate(552.418,155.686)"
             id="g3775">
            <path
               inkscape:connector-curvature="0"
               id="path3777"
               style="fill:#a01217;fill-opacity:1;fill-rule:evenodd;stroke:none"
               d="m 0,0 c 0,2.873 2.316,5.189 5.188,5.189 2.827,0 5.19,-2.316 5.19,-5.189 0,-2.872 -2.363,-5.188 -5.19,-5.188 C 2.316,-5.188 0,-2.872 0,0 m -1.251,0 c 0,-3.521 2.919,-6.393 6.439,-6.393 3.522,0 6.394,2.872 6.394,6.393 0,3.521 -2.872,6.394 -6.394,6.394 -3.52,0 -6.439,-2.873 -6.439,-6.394" />
          </g>
          <g
             transform="translate(373.752,182.938)"
             id="g3779">
            <path
               inkscape:connector-curvature="0"
               id="path3781"
               style="fill:#1c4b75;fill-opacity:1;fill-rule:nonzero;stroke:none"
               d="m 0,0 c 1.006,5.853 4.038,11.027 8.692,14.999 4.9,4.181 11.525,6.846 19.208,6.846 6.899,0 12.291,-2.979 14.271,-6.062 L 33.192,7.944 c -1.758,1.933 -4.608,3.292 -7.9,3.292 -3.501,0 -6.426,-1.202 -8.631,-3.083 -2.327,-1.986 -3.752,-4.495 -4.282,-7.578 -0.781,-4.547 2.125,-6.794 5.939,-6.794 1.255,0 2.336,0.209 3.288,0.574 l 1.875,3.92 h -6.009 l 3.333,7.839 H 38.417 L 29.983,-12.543 C 26.009,-14.686 20.557,-16.306 15.278,-16.306 6.185,-16.306 -1.978,-11.498 0,0" />
          </g>
          <g
             transform="translate(431.582,186.5962)"
             id="g3783">
            <path
               inkscape:connector-curvature="0"
               id="path3785"
               style="fill:#1c4b75;fill-opacity:1;fill-rule:nonzero;stroke:none"
               d="M 0,0 C 2.457,0 4.273,0.679 5.401,1.672 6.172,2.352 6.651,3.188 6.785,4.181 6.892,4.964 6.715,5.592 6.263,6.114 5.676,6.794 4.523,7.16 2.799,7.16 H -1.539 L -4.441,0 Z M -4.89,-8.728 H -7.295 -7.922 L -12.157,-19.18 H -24.386 L -9.612,17.403 H 4.654 c 6.742,0 10.829,-1.464 12.953,-3.92 C 19.37,11.445 19.846,8.78 19.449,5.853 18.976,2.352 17.521,-0.679 14.673,-3.188 12.834,-4.808 10.58,-6.01 7.521,-7.003 l 3.42,-12.177 h -13.17 z" />
          </g>
          <g
             transform="translate(449.1465,179.8545)"
             id="g3787">
            <path
               inkscape:connector-curvature="0"
               id="path3789"
               style="fill:#1c4b75;fill-opacity:1;fill-rule:nonzero;stroke:none"
               d="m 0,0 c 0.27,1.934 0.809,3.919 1.608,5.905 l 7.46,18.24 H 21.507 L 13.728,5.122 c -0.415,-1.098 -0.71,-2.091 -0.82,-2.875 -0.43,-3.083 1.083,-4.599 4.375,-4.599 1.62,0 2.999,0.523 4.132,1.516 1.25,1.097 2.172,2.456 3.357,5.331 l 8.023,19.65 H 45.233 L 36.425,2.613 C 34.454,-2.143 32.062,-5.801 29.143,-8.362 25.152,-11.863 19.849,-13.169 13.996,-13.169 3.596,-13.169 -1.161,-8.31 0,0" />
          </g>
          <g
             transform="translate(507.4844,194.2266)"
             id="g3791">
            <path
               inkscape:connector-curvature="0"
               id="path3793"
               style="fill:#1c4b75;fill-opacity:1;fill-rule:nonzero;stroke:none"
               d="m 0,0 h -2.3 l -3.581,-8.153 h 2.196 c 2.561,0 4.492,0.575 5.905,1.777 0.923,0.784 1.524,1.829 1.746,3.083 C 4.113,-2.457 3.928,-1.725 3.455,-1.15 2.766,-0.314 1.41,0 0,0 M -10.141,9.772 H 2.141 c 6.741,0 10.639,-1.306 12.878,-4.023 1.592,-1.935 2.091,-4.443 1.576,-7.37 -0.729,-4.128 -2.696,-7.577 -5.893,-10.295 -3.688,-3.135 -8.871,-4.964 -15.299,-4.964 h -5.174 l -4.416,-9.93 h -12.229 z" />
          </g>
          <g
             transform="translate(547.1602,179.75)"
             id="g3795">
            <path
               inkscape:connector-curvature="0"
               id="path3797"
               style="fill:#1c4b75;fill-opacity:1;fill-rule:nonzero;stroke:none"
               d="m 0,0 c 2.172,1.881 3.698,4.651 4.109,7.316 0.606,3.92 -1.286,6.899 -5.676,6.899 -2.247,0 -4.162,-0.888 -5.79,-2.3 -2.172,-1.881 -3.698,-4.651 -4.109,-7.316 -0.605,-3.92 1.285,-6.898 5.676,-6.898 2.247,0 4.161,0.888 5.79,2.299 M 16.56,8.414 C 15.656,2.561 12.421,-2.822 7.835,-6.794 c -4.404,-3.815 -10.063,-6.271 -16.124,-6.271 -10.714,0 -17.073,7.212 -15.628,16.566 0.904,5.853 4.139,11.236 8.725,15.208 4.404,3.815 10.062,6.271 16.125,6.271 10.713,0 17.072,-7.211 15.627,-16.566" />
          </g>
        </g>
      </g>
    </g>
  </g>
</svg>
